<svg width="36" height="36" viewBox="0 0 36 36" fill="none" xmlns="http://www.w3.org/2000/svg">
<path fill-rule="evenodd" clip-rule="evenodd" d="M17.9981 25.4759C17.755 25.4759 17.5294 25.35 17.4035 25.1449C16.9494 24.4213 16.3371 23.5102 15.6283 22.4586C12.775 18.2227 8.86719 12.4253 8.86719 9.13264C8.86719 4.09694 12.9625 0.00158691 17.9982 0.00158691C23.0338 0.00158691 27.1292 4.09694 27.1292 9.13264C27.1292 12.4253 23.2214 18.2256 20.3681 22.4586C19.6592 23.5102 19.0469 24.4213 18.5929 25.1449C18.4667 25.3529 18.2412 25.4759 17.9981 25.4759ZM17.9981 1.40773C13.7387 1.40773 10.2732 4.87326 10.2732 9.13264C10.2732 11.9947 14.1958 17.8184 16.7941 21.6735C17.2364 22.3326 17.6437 22.9331 17.9981 23.4751C18.3525 22.9331 18.7598 22.3326 19.2021 21.6735C21.7976 17.8184 25.7201 11.9946 25.7201 9.13264C25.723 4.87318 22.2574 1.40773 17.9981 1.40773Z" fill="#FD5523"/>
<path fill-rule="evenodd" clip-rule="evenodd" d="M17.9996 14.013C15.2459 14.013 13.0078 11.772 13.0078 9.02118C13.0078 6.26752 15.2488 4.02942 17.9996 4.02942C20.7533 4.02942 22.9914 6.27043 22.9914 9.02118C22.9913 11.772 20.7532 14.013 17.9996 14.013ZM17.9996 5.43274C16.0222 5.43274 14.414 7.04102 14.414 9.01836C14.414 10.9958 16.0222 12.6041 17.9996 12.6041C19.977 12.6041 21.5853 10.9958 21.5853 9.01836C21.5852 7.04093 19.977 5.43274 17.9996 5.43274Z" fill="#FD5523"/>
<path fill-rule="evenodd" clip-rule="evenodd" d="M12.7989 35.9984C12.7256 35.9984 12.6495 35.9867 12.5762 35.9633L2.17964 32.4949C1.89255 32.3981 1.69922 32.1316 1.69922 31.8269V11.6138C1.69922 11.3883 1.80759 11.1744 1.99212 11.0426C2.17665 10.9108 2.41109 10.8756 2.62494 10.946L11.7736 13.9955C11.9435 14.0511 12.0841 14.1713 12.1691 14.3264C12.5235 14.9797 12.9366 15.6975 13.4023 16.4591C13.4697 16.5704 13.5049 16.6964 13.5049 16.8252V35.2953C13.5049 35.5209 13.3965 35.7347 13.212 35.8666C13.0889 35.9515 12.9453 35.9984 12.7989 35.9984ZM3.10536 31.3231L12.0958 34.3199L12.0957 17.0216C11.712 16.3887 11.3751 15.8029 11.0645 15.2434L3.10536 12.5865V31.3231Z" fill="#FD5523"/>
<path fill-rule="evenodd" clip-rule="evenodd" d="M12.8008 35.9985C12.6543 35.9985 12.5108 35.9515 12.3906 35.8667C12.2062 35.7348 12.0977 35.5209 12.0977 35.2954L12.0977 16.8253C12.0977 16.509 12.3087 16.2336 12.6104 16.1487C12.915 16.0637 13.2373 16.1926 13.4013 16.4592C14.5087 18.2813 15.7244 20.0829 16.7937 21.6736C17.236 22.3327 17.6433 22.9362 17.9976 23.4752C18.3521 22.9362 18.7593 22.3327 19.2016 21.6736C20.2738 20.0829 21.4866 18.2813 22.594 16.4592C22.758 16.1897 23.0802 16.0637 23.3849 16.1487C23.6895 16.2336 23.8977 16.509 23.8977 16.8253V31.8299C23.8977 32.1316 23.7042 32.4011 23.4171 32.4978L13.0206 35.9633C12.9501 35.9867 12.877 35.9985 12.8008 35.9985ZM13.5038 19.2626V34.3198L22.4943 31.323V19.2626C21.7707 20.3816 21.0413 21.4627 20.3705 22.4615C19.6615 23.5132 19.0493 24.4243 18.5953 25.1479C18.4663 25.3529 18.2409 25.4788 17.9976 25.4788C17.7545 25.4788 17.5289 25.3529 17.403 25.1479C16.9489 24.4214 16.3367 23.5132 15.6278 22.4615C14.9569 21.4627 14.2303 20.3816 13.5038 19.2626Z" fill="#FD5523"/>
<path fill-rule="evenodd" clip-rule="evenodd" d="M33.5957 35.9984C33.5224 35.9984 33.4464 35.9867 33.3731 35.9633L22.9766 32.4978C22.6895 32.4011 22.4962 32.1345 22.4962 31.8298L22.4961 16.8253C22.4961 16.6964 22.5312 16.5705 22.5987 16.4592C23.6357 14.7513 24.3944 13.3335 24.9157 12.1236C25.0593 11.7867 25.4372 11.6197 25.7829 11.734L33.8183 14.4115C34.1054 14.5082 34.2987 14.7747 34.2987 15.0794V35.2954C34.2987 35.521 34.1904 35.7348 34.0058 35.8666C33.8857 35.9515 33.7422 35.9984 33.5957 35.9984ZM23.9022 31.3231L32.8927 34.3199L32.8926 15.5862L25.941 13.269C25.4343 14.3588 24.7605 15.595 23.9022 17.0216V31.3231Z" fill="#FD5523"/>
</svg>
